<svg xmlns="http://www.w3.org/2000/svg" viewBox="0 0 24 24"><g data-name="Layer 9"><path fill="#f37880" d="M21.85,7.87a4.52,4.52,0,0,0-3.78-3.16H18C17.57,3.23,14.11,3,12,3s-5.57.23-6,1.72H5.93A4.52,4.52,0,0,0,2.15,7.87,23.06,23.06,0,0,0,1,14a23,23,0,0,0,1,6.66A.5.5,0,0,0,2.5,21h19a.5.5,0,0,0,.48-.36A28.37,28.37,0,0,0,23,14,23.06,23.06,0,0,0,21.85,7.87Z"/><path fill="#655ca8" d="M22,20.64c0-.06.2-.7.4-1.64H1.58C1.8,20,2,20.6,2,20.66A.5.5,0,0,0,2.5,21h19A.5.5,0,0,0,22,20.64Z"/><polygon fill="#d3636e" points="5.04 21 6 10 3.61 21 5.04 21"/><polygon fill="#4c4882" points="4.04 19 3.61 21 5.04 21 5.22 19 4.04 19"/><polygon fill="#d3636e" points="18 10 18.96 21 20.39 21 18 10"/><polygon fill="#4c4882" points="18.78 19 18.96 21 20.39 21 19.96 19 18.78 19"/><path fill="#d3636e" d="M12 6.41c-.53-.21-1.27-.56-1.85-.84a.28.28 0 0 1 .1-.52C10.78 5 11.44 5 12 5s1.22 0 1.75.08a.27.27 0 0 1 .1.52C13.27 5.85 12.53 6.2 12 6.41zM4.2 5.29C5.79 7.49 9 7.5 9 7.5A4.93 4.93 0 0 1 6.06 4.67s0 0 0 0H5.93A4.49 4.49 0 0 0 4.2 5.29zM19.8 5.29a4.49 4.49 0 0 0-1.73-.58H18s0 0 0 0A4.93 4.93 0 0 1 15 7.5S18.21 7.49 19.8 5.29z"/></g></svg>